<svg width="512" height="512" viewBox="0 0 512 512" fill="none" xmlns="http://www.w3.org/2000/svg">
  <rect width="512" height="512" rx="128" fill="url(#gradient)" />
  <path d="M256 128C185.307 128 128 185.307 128 256C128 326.693 185.307 384 256 384C326.693 384 384 326.693 384 256C384 185.307 326.693 128 256 128ZM256 352C203.065 352 160 308.935 160 256C160 203.065 203.065 160 256 160C308.935 160 352 203.065 352 256C352 308.935 308.935 352 256 352Z" fill="white"/>
  <circle cx="256" cy="256" r="48" fill="white"/>
  <defs>
    <linearGradient id="gradient" x1="0" y1="0" x2="512" y2="512" gradientUnits="userSpaceOnUse">
      <stop offset="0%" style="stop-color:#6366F1"/>
      <stop offset="100%" style="stop-color:#A855F7"/>
    </linearGradient>
  </defs>
</svg> 